<svg width="16" height="16" viewBox="0 0 16 16" fill="none" xmlns="http://www.w3.org/2000/svg">
<path d="M5.3125 3.8125C6.1875 2.9375 7.25 2.5 8.5 2.5C9.75 2.5 10.8125 2.9375 11.6875 3.8125C12.5625 4.6875 13 5.75 13 7C13 7.25 12.9922 7.46875 12.9766 7.65625C12.9609 7.82812 12.9062 8.03906 12.8125 8.28906C12.7188 8.53906 12.6328 8.75 12.5547 8.92188C12.4766 9.09375 12.3203 9.375 12.0859 9.76562C11.8516 10.1562 11.6406 10.4922 11.4531 10.7734C11.2812 11.0547 10.9844 11.5234 10.5625 12.1797C10.1562 12.8359 9.78906 13.4297 9.46094 13.9609C9.24219 14.3203 8.92188 14.5 8.5 14.5C8.07812 14.5 7.75781 14.3203 7.53906 13.9609C7.21094 13.4297 6.83594 12.8359 6.41406 12.1797C6.00781 11.5234 5.71094 11.0547 5.52344 10.7734C5.35156 10.4922 5.14844 10.1562 4.91406 9.76562C4.67969 9.375 4.52344 9.09375 4.44531 8.92188C4.36719 8.75 4.28125 8.53906 4.1875 8.28906C4.09375 8.03906 4.03906 7.82812 4.02344 7.65625C4.00781 7.46875 4 7.25 4 7C4 5.75 4.4375 4.6875 5.3125 3.8125ZM8.5 13.375C8.8125 12.875 9.14844 12.3438 9.50781 11.7812C9.86719 11.2188 10.1328 10.7969 10.3047 10.5156C10.4922 10.2188 10.6875 9.90625 10.8906 9.57812C11.0938 9.25 11.2344 9.00781 11.3125 8.85156C11.4062 8.67969 11.5 8.5 11.5938 8.3125C11.6875 8.125 11.75 7.96875 11.7812 7.84375C11.8125 7.71875 11.8359 7.59375 11.8516 7.46875C11.8672 7.32812 11.875 7.17188 11.875 7C11.875 6.0625 11.5469 5.26562 10.8906 4.60938C10.2344 3.95312 9.4375 3.625 8.5 3.625C7.5625 3.625 6.76562 3.95312 6.10938 4.60938C5.45312 5.26562 5.125 6.0625 5.125 7C5.125 7.17188 5.13281 7.32812 5.14844 7.46875C5.16406 7.59375 5.1875 7.72656 5.21875 7.86719C5.25 7.99219 5.3125 8.14844 5.40625 8.33594C5.5 8.52344 5.59375 8.70312 5.6875 8.875C5.78125 9.03125 5.92969 9.27344 6.13281 9.60156C6.33594 9.92969 6.52344 10.2422 6.69531 10.5391C6.88281 10.8203 7.14844 11.2422 7.49219 11.8047C7.85156 12.3516 8.1875 12.875 8.5 13.375ZM7.16406 8.33594C6.80469 7.96094 6.625 7.51562 6.625 7C6.625 6.48438 6.80469 6.04688 7.16406 5.6875C7.53906 5.3125 7.98438 5.125 8.5 5.125C9.01562 5.125 9.45312 5.3125 9.8125 5.6875C10.1875 6.04688 10.375 6.48438 10.375 7C10.375 7.51562 10.1875 7.96094 9.8125 8.33594C9.45312 8.69531 9.01562 8.875 8.5 8.875C7.98438 8.875 7.53906 8.69531 7.16406 8.33594Z" fill="#485363"/>
</svg>
