<svg width="16" height="16" viewBox="0 0 16 16" fill="none" xmlns="http://www.w3.org/2000/svg">
<path d="M12.875 4C13.1875 4 13.4531 4.10938 13.6719 4.32812C13.8906 4.54688 14 4.8125 14 5.125V11.875C14 12.1875 13.8906 12.4531 13.6719 12.6719C13.4531 12.8906 13.1875 13 12.875 13H3.125C2.8125 13 2.54688 12.8906 2.32812 12.6719C2.10938 12.4531 2 12.1875 2 11.875V5.125C2 4.8125 2.10938 4.54688 2.32812 4.32812C2.54688 4.10938 2.8125 4 3.125 4H12.875ZM12.875 5.125H3.125V6.08594C3.67188 6.52344 4.72656 7.35156 6.28906 8.57031C6.28906 8.58594 6.39844 8.6875 6.61719 8.875C6.83594 9.04688 7 9.17188 7.10938 9.25C7.21875 9.3125 7.35938 9.39062 7.53125 9.48438C7.71875 9.57812 7.875 9.625 8 9.625C8.125 9.625 8.27344 9.57812 8.44531 9.48438C8.63281 9.39062 8.78125 9.3125 8.89062 9.25C9 9.17188 9.16406 9.04688 9.38281 8.875C9.60156 8.6875 9.71094 8.58594 9.71094 8.57031C11.2734 7.35156 12.3281 6.52344 12.875 6.08594V5.125ZM3.125 11.875H12.875V7.51562C12.3281 7.95312 11.5078 8.60156 10.4141 9.46094C10.3828 9.47656 10.2656 9.57031 10.0625 9.74219C9.875 9.91406 9.72656 10.0391 9.61719 10.1172C9.50781 10.1953 9.35156 10.2969 9.14844 10.4219C8.94531 10.5312 8.75 10.6172 8.5625 10.6797C8.375 10.7266 8.1875 10.75 8 10.75C7.8125 10.75 7.61719 10.7266 7.41406 10.6797C7.22656 10.6172 7.03125 10.5234 6.82812 10.3984C6.64062 10.2734 6.49219 10.1719 6.38281 10.0938C6.27344 10.0156 6.11719 9.89844 5.91406 9.74219C5.72656 9.57031 5.61719 9.47656 5.58594 9.46094C4.49219 8.60156 3.67188 7.95312 3.125 7.51562V11.875Z" fill="#485363"/>
</svg>
