<svg width="16" height="16" viewBox="0 0 16 16" fill="none" xmlns="http://www.w3.org/2000/svg">
<path d="M13.3438 10.2344C13.4688 10.2812 13.5781 10.3594 13.6719 10.4688C13.7812 10.5781 13.8594 10.7031 13.9062 10.8438C13.9688 10.9688 14 11.0938 14 11.2188C14 11.2969 13.9922 11.375 13.9766 11.4531L13.4609 13.6562C13.4141 13.8906 13.2891 14.0859 13.0859 14.2422C12.8828 14.4141 12.6641 14.5 12.4297 14.5C11.0078 14.5 9.65625 14.2266 8.375 13.6797C7.09375 13.1328 5.98438 12.3984 5.04688 11.4766C4.125 10.5391 3.38281 9.42969 2.82031 8.14844C2.27344 6.85156 2 5.5 2 4.09375V4.07031C2 3.83594 2.07812 3.61719 2.23438 3.41406C2.40625 3.21094 2.60938 3.08594 2.84375 3.03906L5.04688 2.52344C5.125 2.50781 5.20312 2.5 5.28125 2.5C5.48438 2.5 5.67969 2.5625 5.86719 2.6875C6.05469 2.8125 6.1875 2.96875 6.26562 3.15625L7.27344 5.52344C7.33594 5.66406 7.36719 5.80469 7.36719 5.94531C7.36719 6.28906 7.23438 6.57031 6.96875 6.78906L6.03125 7.53906C6.21875 7.88281 6.47656 8.25 6.80469 8.64062C7.13281 9.01562 7.48438 9.36719 7.85938 9.69531C8.25 10.0234 8.61719 10.2812 8.96094 10.4688L9.71094 9.53125C9.92969 9.26562 10.2109 9.13281 10.5547 9.13281C10.6953 9.13281 10.8359 9.15625 10.9766 9.20312L13.3438 10.2344ZM12.3828 13.375L12.875 11.2422L10.5547 10.2578L9.26562 11.8516C8.10938 11.3203 7.17969 10.7109 6.47656 10.0234C5.78906 9.33594 5.17969 8.40625 4.64844 7.23438L6.24219 5.94531L5.25781 3.625L3.125 4.11719C3.125 5.38281 3.36719 6.58594 3.85156 7.72656C4.35156 8.85156 5.01562 9.82812 5.84375 10.6562C6.67188 11.4844 7.64844 12.1484 8.77344 12.6484C9.91406 13.1328 11.1172 13.375 12.3828 13.375Z" fill="#485363"/>
</svg>
