<svg width="27" height="56" viewBox="0 0 27 56" fill="none" xmlns="http://www.w3.org/2000/svg">
<path d="M22.0312 26C22.3438 26 22.5 26.1562 22.5 26.4688V27.4062C22.5 27.7188 22.3438 27.875 22.0312 27.875H21.2891L20.2344 35.6484C20.1562 36.0911 19.9349 36.4688 19.5703 36.7812C19.2318 37.0938 18.8281 37.25 18.3594 37.25H4.14062C3.67188 37.25 3.25521 37.0938 2.89062 36.7812C2.55208 36.4688 2.34375 36.0911 2.26562 35.6484L1.21094 27.875H0.46875C0.15625 27.875 0 27.7188 0 27.4062V26.4688C0 26.1562 0.15625 26 0.46875 26H3.32031L8.35938 20.0625C8.51562 19.8802 8.72396 19.776 8.98438 19.75C9.24479 19.724 9.46615 19.8021 9.64844 19.9844C9.85677 20.1406 9.97396 20.349 10 20.6094C10.026 20.8698 9.94792 21.1042 9.76562 21.3125L5.78125 26H16.7188L12.7344 21.3125C12.5521 21.1042 12.474 20.8698 12.5 20.6094C12.526 20.349 12.6302 20.1406 12.8125 19.9844C13.0208 19.8021 13.2552 19.724 13.5156 19.75C13.776 19.776 13.9844 19.8802 14.1406 20.0625L19.1797 26H22.0312ZM18.3594 35.375L19.4141 27.875H3.08594L4.14062 35.375H18.3594ZM12.1875 30.0625V33.1875C12.1875 33.4479 12.0964 33.6693 11.9141 33.8516C11.7318 34.0339 11.5104 34.125 11.25 34.125C10.9896 34.125 10.7682 34.0339 10.5859 33.8516C10.4036 33.6693 10.3125 33.4479 10.3125 33.1875V30.0625C10.3125 29.8021 10.4036 29.5807 10.5859 29.3984C10.7682 29.2161 10.9896 29.125 11.25 29.125C11.5104 29.125 11.7318 29.2161 11.9141 29.3984C12.0964 29.5807 12.1875 29.8021 12.1875 30.0625ZM16.5625 30.0625V33.1875C16.5625 33.4479 16.4714 33.6693 16.2891 33.8516C16.1068 34.0339 15.8854 34.125 15.625 34.125C15.3646 34.125 15.1432 34.0339 14.9609 33.8516C14.7786 33.6693 14.6875 33.4479 14.6875 33.1875V30.0625C14.6875 29.8021 14.7786 29.5807 14.9609 29.3984C15.1432 29.2161 15.3646 29.125 15.625 29.125C15.8854 29.125 16.1068 29.2161 16.2891 29.3984C16.4714 29.5807 16.5625 29.8021 16.5625 30.0625ZM7.8125 30.0625V33.1875C7.8125 33.4479 7.72135 33.6693 7.53906 33.8516C7.35677 34.0339 7.13542 34.125 6.875 34.125C6.61458 34.125 6.39323 34.0339 6.21094 33.8516C6.02865 33.6693 5.9375 33.4479 5.9375 33.1875V30.0625C5.9375 29.8021 6.02865 29.5807 6.21094 29.3984C6.39323 29.2161 6.61458 29.125 6.875 29.125C7.13542 29.125 7.35677 29.2161 7.53906 29.3984C7.72135 29.5807 7.8125 29.8021 7.8125 30.0625Z" fill="#485363"/>
<rect x="8" y="7" width="18" height="18" rx="9" fill="#FA4C44"/>
<rect x="8" y="7" width="18" height="18" rx="9" stroke="white" stroke-width="2"/>
<path d="M19.9824 20H14.1348V18.8398L16.8945 15.8984C17.2734 15.4844 17.5527 15.123 17.7324 14.8145C17.916 14.5059 18.0078 14.2129 18.0078 13.9355C18.0078 13.5566 17.9121 13.2598 17.7207 13.0449C17.5293 12.8262 17.2559 12.7168 16.9004 12.7168C16.5176 12.7168 16.2148 12.8496 15.9922 13.1152C15.7734 13.377 15.6641 13.7227 15.6641 14.1523H13.9648C13.9648 13.6328 14.0879 13.1582 14.334 12.7285C14.584 12.2988 14.9355 11.9629 15.3887 11.7207C15.8418 11.4746 16.3555 11.3516 16.9297 11.3516C17.8086 11.3516 18.4902 11.5625 18.9746 11.9844C19.4629 12.4062 19.707 13.002 19.707 13.7715C19.707 14.1934 19.5977 14.623 19.3789 15.0605C19.1602 15.498 18.7852 16.0078 18.2539 16.5898L16.3145 18.6348H19.9824V20Z" fill="white"/>
</svg>
