<svg width="147" height="28" viewBox="0 0 147 28" fill="none" xmlns="http://www.w3.org/2000/svg">
<path d="M17.2688 0.18075C7.22647 0.18075 0 5.42854 0 17.2087V27.9776H128.855C133.194 27.9776 137.03 26.9937 139.961 24.9027C143.811 22.1968 146.124 17.6187 146.124 10.9496V0.167084H17.2545V0.18075H17.2688Z" fill="#0099A8"/>
<path d="M53.631 19.0536C53.631 19.7643 53.7316 20.0786 54.0333 20.3793C54.3062 20.6526 54.6941 20.7892 55.1395 20.7892C56.0015 20.7892 56.5618 20.1059 56.5618 19.04V14.3662C56.5618 10.2527 53.7459 7.79277 49.0049 7.79277C44.6805 7.79277 41.5198 10.526 41.5198 14.2842C41.5198 18.015 44.5943 20.8439 48.6745 20.8439C51.0593 20.8439 52.6972 19.8599 53.5592 18.999L53.631 19.0536ZM48.9762 18.2473C46.2752 18.2473 44.3932 16.6347 44.3932 14.3662V14.3115C44.3932 12.0156 46.2752 10.4167 48.9762 10.4167C52.0219 10.4167 53.7747 11.8243 53.7747 14.2842C53.7747 16.6484 51.792 18.2473 48.9762 18.2473ZM70.0522 17.9057C69.104 17.9057 68.5006 18.384 68.5006 19.1493C68.5006 19.8189 68.989 20.3109 69.7792 20.4749C71.2015 20.7346 73.0261 20.7482 74.7645 20.7482C76.7183 20.7482 78.2268 20.3656 79.2469 19.5866C80.2382 18.8213 80.583 17.851 80.583 16.8124C80.583 14.6122 78.8446 13.5325 74.5633 13.0132C71.9486 12.6989 71.3739 12.4392 71.3739 11.6056C71.3739 11.018 71.7331 10.4713 74.3622 10.4713C75.8563 10.4713 77.0631 10.567 78.1119 10.567C79.0601 10.567 79.6779 10.075 79.6779 9.30971C79.6779 8.51707 79.0026 8.05242 77.724 7.95676H77.6953C76.7902 7.9021 74.1467 7.84743 73.8594 7.8611C70.4832 7.8611 68.5437 9.24137 68.5437 11.6603C68.5437 14.0108 70.1384 15.1725 73.9025 15.5278C76.0144 15.7328 77.7671 15.9514 77.7671 16.8534C77.7671 17.7417 76.7183 18.138 74.3622 18.138C72.5089 18.1517 70.8711 17.9057 70.0522 17.9057ZM105.624 10.4987C108.153 10.4987 109.36 11.5646 109.36 13.7375V19.0946C109.36 20.1606 109.949 20.8302 110.854 20.8302C111.586 20.8302 112.333 20.2836 112.333 19.081V13.3549C112.333 10.034 109.704 7.87476 105.639 7.87476C101.53 7.87476 98.8575 10.0203 98.8575 13.3549V19.122C98.8575 20.1879 99.4465 20.8576 100.352 20.8576C101.084 20.8576 101.831 20.3109 101.831 19.1083V13.7649C101.817 11.5919 103.096 10.4987 105.624 10.4987ZM60.2972 5.86584C59.3921 5.86584 58.803 6.54915 58.803 7.60144V16.7031C58.803 19.3543 60.4552 20.7619 63.5871 20.7619C64.2049 20.7619 64.7652 20.7072 65.2249 20.5979C66.245 20.3929 66.7766 19.9556 66.7766 19.2586C66.7766 18.5753 66.3456 17.9604 65.1675 18.015C65.0382 18.015 63.975 18.1107 63.6302 18.1107C62.0499 18.1107 61.7338 17.3317 61.7338 16.1564V10.9496H64.8083C65.972 10.9496 66.5754 10.4987 66.5754 9.67869C66.5754 8.88605 65.9145 8.42141 64.8083 8.42141H61.7338V7.60144C61.7195 6.53548 61.1592 5.86584 60.2972 5.86584ZM89.4616 7.8201C85.1372 7.8201 81.9766 10.5533 81.9766 14.3115C81.9766 18.0834 85.1229 20.8166 89.4616 20.8166C93.8004 20.8166 96.9467 18.0834 96.9467 14.3115C96.918 10.5533 93.786 7.8201 89.4616 7.8201ZM89.4616 18.2337C86.7463 18.2337 84.8355 16.6211 84.8355 14.3252C84.8355 12.0293 86.7319 10.4303 89.4616 10.4303C92.1769 10.4303 94.0877 12.0429 94.0877 14.3252C94.0733 16.6211 92.1626 18.2337 89.4616 18.2337ZM29.5236 14.1202L31.4344 18.8213C31.9372 20.0513 33.144 20.8439 34.4801 20.8439C35.8881 20.8439 37.1092 20.0239 37.5259 18.7393L40.4998 9.61036C40.744 8.85872 40.2987 8.07976 39.5229 7.84743C38.7758 7.62877 37.9282 8.01143 37.6695 8.77673L34.7244 17.7964C34.6813 17.933 34.5807 18.0287 34.4658 18.0287C34.3508 18.0287 34.2503 17.9467 34.1928 17.7964L31.7217 11.7423C31.3482 10.8266 30.8741 9.67869 29.5092 9.67869C28.1444 9.67869 27.6703 10.8266 27.2968 11.7423L24.8257 17.7964C24.7682 17.933 24.682 18.0287 24.5527 18.0287C24.4378 18.0287 24.3372 17.9467 24.2941 17.7964L21.3489 8.77673C21.1047 8.03876 20.3002 7.61511 19.4956 7.84743C18.7055 8.07976 18.2745 8.87239 18.5187 9.61036L21.4926 18.7393C21.9092 20.0239 23.1304 20.8439 24.5384 20.8439C25.8888 20.8439 27.0813 20.0376 27.5841 18.8213L29.5236 14.1202ZM119.991 18.1517C122.361 18.1517 123.396 17.7554 123.396 16.8671C123.396 15.9788 121.643 15.7328 119.531 15.5415C115.781 15.1861 114.172 14.0382 114.172 11.6739C114.172 9.26871 116.098 7.87476 119.474 7.87476C119.761 7.87476 122.405 7.91576 123.31 7.97043H123.338C124.617 8.06609 125.292 8.53074 125.292 9.32337C125.292 10.1023 124.674 10.5807 123.726 10.5807C122.692 10.5807 121.471 10.485 119.977 10.485C117.347 10.485 116.988 11.0316 116.988 11.6193C116.988 12.4529 117.592 12.7262 120.206 13.0269C124.473 13.5325 126.226 14.6395 126.226 16.8261C126.226 17.8647 125.881 18.835 124.89 19.6003C123.884 20.3656 122.376 20.7619 120.393 20.7619C118.64 20.7619 116.816 20.7482 115.408 20.4886C114.603 20.3519 114.129 19.8463 114.129 19.163C114.129 18.384 114.718 17.9194 115.681 17.9194C116.471 17.9057 118.123 18.1517 119.991 18.1517Z" fill="white"/>
<path d="M128.898 27.9776C133.251 27.9776 137.073 26.9937 140.004 24.9164H0V27.9776H128.898Z" fill="#E1251B"/>
</svg>
