<svg width="32" height="32" viewBox="0 0 32 32" fill="none" xmlns="http://www.w3.org/2000/svg">
<path d="M25.8438 24.8203C26.0781 25.0286 26.0781 25.25 25.8438 25.4844L24.9844 26.3438C24.75 26.5781 24.5286 26.5781 24.3203 26.3438L19.5938 21.6172C19.4896 21.513 19.4375 21.4089 19.4375 21.3047V20.7578C17.901 22.0859 16.1302 22.75 14.125 22.75C11.8854 22.75 9.97135 21.9557 8.38281 20.3672C6.79427 18.7786 6 16.8646 6 14.625C6 12.3854 6.79427 10.4714 8.38281 8.88281C9.97135 7.29427 11.8854 6.5 14.125 6.5C16.3646 6.5 18.2786 7.29427 19.8672 8.88281C21.4557 10.4714 22.25 12.3854 22.25 14.625C22.25 16.6302 21.5859 18.401 20.2578 19.9375H20.8047C20.9349 19.9375 21.0391 19.9896 21.1172 20.0938L25.8438 24.8203ZM9.71094 19.0391C10.9349 20.263 12.4062 20.875 14.125 20.875C15.8438 20.875 17.3151 20.263 18.5391 19.0391C19.763 17.8151 20.375 16.3438 20.375 14.625C20.375 12.9062 19.763 11.4349 18.5391 10.2109C17.3151 8.98698 15.8438 8.375 14.125 8.375C12.4062 8.375 10.9349 8.98698 9.71094 10.2109C8.48698 11.4349 7.875 12.9062 7.875 14.625C7.875 16.3438 8.48698 17.8151 9.71094 19.0391Z" fill="#485363"/>
</svg>
