<svg width="24" height="24" viewBox="0 0 24 24" fill="none" xmlns="http://www.w3.org/2000/svg">
<path d="M16.7852 6.96484C18.1159 8.27734 18.7812 9.8724 18.7812 11.75C18.7812 13.6276 18.1159 15.2318 16.7852 16.5625C15.4727 17.875 13.8776 18.5312 12 18.5312C10.1224 18.5312 8.51823 17.875 7.1875 16.5625C5.875 15.2318 5.21875 13.6276 5.21875 11.75C5.21875 9.8724 5.875 8.27734 7.1875 6.96484C8.51823 5.63411 10.1224 4.96875 12 4.96875C13.8776 4.96875 15.4727 5.63411 16.7852 6.96484ZM12.1914 7.21094C10.8424 7.21094 9.77604 7.79427 8.99219 8.96094C8.88281 9.125 8.91016 9.27083 9.07422 9.39844L10.0312 10.1094C10.1953 10.237 10.3411 10.2188 10.4688 10.0547C10.6693 9.81771 10.8242 9.64453 10.9336 9.53516C11.0612 9.40755 11.2161 9.29818 11.3984 9.20703C11.5807 9.11589 11.7904 9.07031 12.0273 9.07031C12.3372 9.07031 12.6198 9.16146 12.875 9.34375C13.1484 9.50781 13.2852 9.71745 13.2852 9.97266C13.2852 10.1732 13.2122 10.3372 13.0664 10.4648C12.9388 10.5742 12.7201 10.7201 12.4102 10.9023C12.082 11.0846 11.8359 11.2305 11.6719 11.3398C11.526 11.4492 11.362 11.6406 11.1797 11.9141C10.9974 12.1875 10.9062 12.4974 10.9062 12.8438V12.9531C10.9062 13.1719 11.0156 13.2812 11.2344 13.2812H12.7656C12.9844 13.2812 13.0938 13.1719 13.0938 12.9531V12.9258C13.0938 12.7617 13.2122 12.5977 13.4492 12.4336C13.6862 12.2695 13.9414 12.1146 14.2148 11.9688C14.5065 11.8229 14.7708 11.5768 15.0078 11.2305C15.2448 10.8841 15.3633 10.474 15.3633 10C15.3633 9.23438 15.0352 8.57812 14.3789 8.03125C13.7227 7.48438 12.9935 7.21094 12.1914 7.21094ZM12.875 14.375C12.638 14.1198 12.3464 13.9922 12 13.9922C11.6536 13.9922 11.3529 14.1198 11.0977 14.375C10.8607 14.612 10.7422 14.9036 10.7422 15.25C10.7422 15.5964 10.8607 15.8971 11.0977 16.1523C11.3529 16.3893 11.6536 16.5078 12 16.5078C12.3464 16.5078 12.638 16.3893 12.875 16.1523C13.1302 15.8971 13.2578 15.5964 13.2578 15.25C13.2578 14.9036 13.1302 14.612 12.875 14.375Z" fill="#485363"/>
</svg>
