<svg width="32" height="32" viewBox="0 0 32 32" fill="none" xmlns="http://www.w3.org/2000/svg">
<rect x="0.5" y="0.5" width="31" height="31" rx="3.5" fill="#ECECEC" fill-opacity="0.3"/>
<rect x="0.5" y="0.5" width="31" height="31" rx="3.5" stroke="#ECECEC"/>
<path d="M17.6797 16.0312C18.2526 16.2135 18.7083 16.5521 19.0469 17.0469C19.4115 17.5417 19.5938 18.1016 19.5938 18.7266C19.5938 19.2214 19.4766 19.6901 19.2422 20.1328C19.0078 20.5495 18.6823 20.888 18.2656 21.1484C17.849 21.3828 17.4062 21.5 16.9375 21.5V22.125C16.9375 22.3073 16.8724 22.4635 16.7422 22.5938C16.638 22.6979 16.4948 22.75 16.3125 22.75H15.6875C15.5052 22.75 15.349 22.6979 15.2188 22.5938C15.1146 22.4635 15.0625 22.3073 15.0625 22.125V21.5C14.4115 21.474 13.8125 21.2786 13.2656 20.9141C13.0833 20.7839 12.9792 20.6276 12.9531 20.4453C12.9531 20.237 13.0182 20.0677 13.1484 19.9375L13.6172 19.4688C13.8516 19.2604 14.112 19.2474 14.3984 19.4297C14.6328 19.5599 14.8932 19.625 15.1797 19.625H16.9375C17.1458 19.625 17.3281 19.5339 17.4844 19.3516C17.6406 19.1693 17.7188 18.9609 17.7188 18.7266C17.7188 18.2578 17.5234 17.9583 17.1328 17.8281L14.3203 16.9688C13.9557 16.8646 13.6172 16.6823 13.3047 16.4219C13.0182 16.1354 12.7969 15.8099 12.6406 15.4453C12.4844 15.0807 12.4062 14.6901 12.4062 14.2734C12.4062 13.5182 12.6667 12.8672 13.1875 12.3203C13.7083 11.7734 14.3333 11.5 15.0625 11.5V10.875C15.0625 10.6927 15.1276 10.5495 15.2578 10.4453C15.388 10.3151 15.5312 10.25 15.6875 10.25H16.3125C16.4948 10.25 16.638 10.3151 16.7422 10.4453C16.8724 10.5495 16.9375 10.6927 16.9375 10.875V11.5C17.6146 11.526 18.2266 11.7214 18.7734 12.0859C18.9297 12.2161 19.0208 12.3854 19.0469 12.5938C19.0729 12.776 19.0078 12.9323 18.8516 13.0625L18.3828 13.5312C18.1484 13.7396 17.888 13.7526 17.6016 13.5703C17.3672 13.4401 17.1068 13.375 16.8203 13.375H15.0625C14.8542 13.375 14.6719 13.4661 14.5156 13.6484C14.3594 13.8307 14.2812 14.0391 14.2812 14.2734C14.2812 14.7422 14.4766 15.0417 14.8672 15.1719L17.6797 16.0312ZM9.125 9.66406C11.026 7.76302 13.3177 6.8125 16 6.8125C18.6823 6.8125 20.9609 7.76302 22.8359 9.66406C24.737 11.5391 25.6875 13.8177 25.6875 16.5C25.6875 19.1823 24.737 21.474 22.8359 23.375C20.9609 25.25 18.6823 26.1875 16 26.1875C13.3177 26.1875 11.026 25.25 9.125 23.375C7.25 21.474 6.3125 19.1823 6.3125 16.5C6.3125 13.8177 7.25 11.5391 9.125 9.66406ZM10.4531 22.0469C11.9896 23.5573 13.8385 24.3125 16 24.3125C18.1615 24.3125 19.9974 23.5573 21.5078 22.0469C23.0443 20.5104 23.8125 18.6615 23.8125 16.5C23.8125 14.3385 23.0443 12.5026 21.5078 10.9922C19.9974 9.45573 18.1615 8.6875 16 8.6875C13.8385 8.6875 11.9896 9.45573 10.4531 10.9922C8.94271 12.5026 8.1875 14.3385 8.1875 16.5C8.1875 18.6615 8.94271 20.5104 10.4531 22.0469Z" fill="#485363"/>
</svg>
