<svg width="32" height="32" viewBox="0 0 32 32" fill="none" xmlns="http://www.w3.org/2000/svg">
<rect x="0.5" y="0.5" width="31" height="31" rx="3.5" fill="#ECECEC" fill-opacity="0.3"/>
<rect x="0.5" y="0.5" width="31" height="31" rx="3.5" stroke="#ECECEC"/>
<path d="M24.75 13.375V24C24.75 24.3385 24.6198 24.625 24.3594 24.8594C24.125 25.1198 23.8385 25.25 23.5 25.25H8.5C8.16146 25.25 7.86198 25.1198 7.60156 24.8594C7.36719 24.625 7.25 24.3385 7.25 24C7.25 18.4792 7.25 14.9375 7.25 13.375C7.25 12.9583 7.35417 12.5677 7.5625 12.2031L9.47656 8.60938C9.65885 8.03646 10.0495 7.75 10.6484 7.75H21.3516C21.9505 7.75 22.3411 8.03646 22.5234 8.60938L24.4375 12.2031C24.6458 12.5677 24.75 12.9583 24.75 13.375ZM20.9609 9.625H17.1719L18.1094 12.75H22.6406L20.9609 9.625ZM11.0391 9.625L9.35938 12.75H13.8906L14.8281 9.625H11.0391ZM9.125 23.375H22.875C22.875 22.2812 22.875 19.3646 22.875 14.625H18.5V17.125C18.5 17.3073 18.4349 17.4635 18.3047 17.5938C18.2005 17.6979 18.0573 17.75 17.875 17.75H14.125C13.9427 17.75 13.7865 17.6979 13.6562 17.5938C13.5521 17.4635 13.5 17.3073 13.5 17.125V14.625H9.125C9.125 15.5625 9.125 17.138 9.125 19.3516C9.125 21.5651 9.125 22.9062 9.125 23.375Z" fill="#485363"/>
</svg>
